<?xml version="1.0" encoding="UTF-8" standalone="no"?>
<svg width="60px" height="60px" viewBox="0 0 60 60" version="1.1" xmlns="http://www.w3.org/2000/svg" xmlns:xlink="http://www.w3.org/1999/xlink" xmlns:sketch="http://www.bohemiancoding.com/sketch/ns">
    <!-- Generator: Sketch 3.2.2 (9983) - http://www.bohemiancoding.com/sketch -->
    <title>Femaleprofile</title>
    <desc>Created with Sketch.</desc>
    <defs></defs>
    <g id="stroked" stroke="none" stroke-width="1" fill="none" fill-rule="evenodd" sketch:type="MSPage">
        <g id="Interface" sketch:type="MSLayerGroup" transform="translate(-837.000000, -1795.000000)" stroke="#8d74b1" stroke-width="2" stroke-linejoin="round">
            <g id="Femaleprofile" transform="translate(839.000000, 1802.000000)" sketch:type="MSShapeGroup">
                <rect id="Rectangle-2376" stroke-linecap="round" x="0" y="0" width="56" height="45"></rect>
                <path d="M16,29 L13.7560976,34.4545455 L9.06952387,34.4545455 C6.26390867,34.4545455 4,36.5913682 4,39.2272727 L4,44.5 M35.9999999,44.5 L36,39.2272727 C36,36.5967318 33.7302969,34.4545455 30.9304761,34.4545455 L25.5684803,34.4545455 L23,29" id="Rectangle-2326" stroke-linecap="round"></path>
                <path d="M10.15625,15.1818182 C10.15625,19.3030303 8,27.5454545 8,27.5454545 C8,27.5454545 13.03125,29 19.5,29 C25.96875,29 31,27.5454545 31,27.5454545 C31,27.5454545 28.84375,19.3030303 28.84375,15.1818182 L28.84375,12.8575869 C28.84375,8.51796147 25.3287742,5 20.9862629,5 L18.0137371,5 C13.6741668,5 10.15625,8.5262424 10.15625,12.8575869 L10.15625,15.1818182 Z" id="Rectangle-2323" stroke-linecap="round"></path>
                <path d="M37.3581291,9 L51,9" id="Line-409" stroke-linecap="square"></path>
                <path d="M37.3581291,13 L51,13" id="Line-410" stroke-linecap="square"></path>
                <path d="M37.3581291,17 L46.9999996,17" id="Line-411" stroke-linecap="square"></path>
            </g>
        </g>
    </g>
</svg>